<?xml version="1.0" encoding="UTF-8"?>
<svg width="79px" height="50px" viewBox="0 0 79 50" version="1.1" xmlns="http://www.w3.org/2000/svg" xmlns:xlink="http://www.w3.org/1999/xlink">
    <title>591DFB20-A48D-45D4-914D-3A65CF7F25FE</title>
    <defs>
        <linearGradient x1="-2.22044605e-14%" y1="30.5700793%" x2="100%" y2="69.4299207%" id="linearGradient-1">
            <stop stop-color="#437132" offset="0%"></stop>
            <stop stop-color="#589442" offset="100%"></stop>
        </linearGradient>
        <path d="M6.15332448,1.11164954e-15 L70.8466755,2.48601674e-16 C72.9863205,-1.44444732e-16 73.7622075,0.222781467 74.5444297,0.641118489 C75.3266519,1.05945551 75.9405445,1.67334809 76.3588815,2.45557031 C76.7772185,3.23779253 77,4.0136795 77,6.15332448 L77,41.8466755 C77,43.9863205 76.7772185,44.7622075 76.3588815,45.5444297 C75.9405445,46.3266519 75.3266519,46.9405445 74.5444297,47.3588815 C73.7622075,47.7772185 72.9863205,48 70.8466755,48 L6.15332448,48 C4.0136795,48 3.23779253,47.7772185 2.45557031,47.3588815 C1.67334809,46.9405445 1.05945551,46.3266519 0.641118489,45.5444297 C0.222781467,44.7622075 1.15008999e-15,43.9863205 -1.97940273e-15,41.8466755 L1.65734449e-16,6.15332448 C-9.62964878e-17,4.0136795 0.222781467,3.23779253 0.641118489,2.45557031 C1.05945551,1.67334809 1.67334809,1.05945551 2.45557031,0.641118489 C3.23779253,0.222781467 4.0136795,-6.45900393e-16 6.15332448,1.11164954e-15 Z" id="path-2"></path>
    </defs>
    <g id="Gift-Cards" stroke="none" stroke-width="1" fill="none" fill-rule="evenodd">
        <g id="WNG---Mobile---HP---Gift-Cards:-Hero-banner" transform="translate(-15.000000, -117.000000)">
            <g id="Section" transform="translate(0.000000, 102.000000)">
                <g id="Gift-Card-without-shadow" transform="translate(16.000000, 16.000000)">
                    <mask id="mask-3" fill="white">
                        <use xlink:href="#path-2"></use>
                    </mask>
                    <use id="background-color" stroke-opacity="0.4" stroke="#437132" stroke-width="1.2" fill="url(#linearGradient-1)" fill-rule="nonzero" xlink:href="#path-2"></use>
                    <path d="M6.16934876,48 C4.02413179,48 3.24622429,47.7772185 2.46196503,47.3588815 C1.67770577,46.9405445 1.06221451,46.3266519 0.642788068,45.5444297 C0.223361627,44.7622075 0,43.9863205 0,41.8466755 L0.0006715386,40.2993166 C4.30037871,31.1734795 12.1571484,23.9197866 22.022891,20.0308693 C21.7282673,23.3797223 21.2935486,29.8452707 21.1755293,32.3539341 C21.056661,34.859196 20.9734531,39.3994515 21.6484556,43.3197695 C21.9172595,44.8802709 22.3771053,46.4633773 22.9502667,48.0015004 L6.16934876,48 Z M54.9745618,20.0308693 C64.8420265,23.9204655 72.7008902,31.1760118 77.000859,40.3040955 L77,41.8466755 C77,43.9863205 76.7766384,44.7622075 76.3572119,45.5444297 C75.9377855,46.3266519 75.3222942,46.9405445 74.538035,47.3588815 C73.7537757,47.7772185 72.9758682,48 70.8306512,48 L54.0489656,48.0015004 C54.6220456,46.4633773 55.0818915,44.8802709 55.3506953,43.3197695 C56.028245,39.3994515 55.9458862,34.859196 55.8210744,32.3539341 C55.7081495,29.8452707 55.2691856,23.3797223 54.9745618,20.0308693 Z M40.2847237,0 L40.2847237,38.0415418 L36.7186726,38.0415418 L36.7186726,0 L40.2847237,0 Z M45.5323377,0.480812977 L49.1026341,0.974892106 L49.1026341,36.7730935 L45.5323377,37.4882752 L45.5323377,0.480812977 Z M31.4664736,0.481153135 L31.4664736,37.487765 L27.89363,36.7725833 L27.89363,0.975232264 L31.4664736,0.481153135 Z" id="Shape" fill="#FFFFFF" opacity="0.08" mask="url(#mask-3)"></path>
                    <circle id="Oval-4" fill="#325526" fill-rule="nonzero" mask="url(#mask-3)" cx="38.4" cy="24" r="19.2"></circle>
                    <path d="M37.05625,26.1588093 L37.05625,31.9188093 L39.94375,31.9188093 L39.94375,26.1588093 L47.1625,26.1588093 L47.1625,32.6388093 C47.1625,32.9922715 46.9071365,33.2862453 46.5703829,33.3472091 L30.559375,33.3588093 C30.1606944,33.3588093 29.8375,33.0364543 29.8375,32.6388093 L29.8375,26.1588093 L37.05625,26.1588093 Z M35.1997544,13.2002586 C36.0702872,13.2278985 36.8824818,13.6482406 37.3655835,14.3055435 C37.7629223,14.7514937 38.1688037,15.5033999 38.4993009,16.3546761 C38.8212065,15.5137907 39.2153998,14.7783252 39.5932568,14.3561814 C40.1054614,13.664198 40.900525,13.2433379 41.7536434,13.2021434 L41.9875826,13.2004032 L42.1508193,13.2055975 C43.335151,13.2774471 44.3763251,14.0353509 44.8004739,15.1530973 C45.2469244,16.3296147 44.9164776,17.6589879 43.9704088,18.4913697 C43.7831663,18.6559318 43.5547016,18.8108882 43.2877073,18.9580714 L47.884375,18.9588093 C48.2830556,18.9588093 48.60625,19.2811643 48.60625,19.6788093 L48.60625,23.9988093 C48.60625,24.3964543 48.2830556,24.7188093 47.884375,24.7188093 L39.94375,24.7188093 L39.94375,20.3988093 L37.05625,20.3988093 L37.05625,24.7188093 L29.115625,24.7188093 C28.7612423,24.7188093 28.4665029,24.4641091 28.4053804,24.1282302 L28.39375,23.9988093 L28.39375,19.6788093 C28.39375,19.2811643 28.7169444,18.9588093 29.115625,18.9588093 L33.71275,18.958 L33.5216088,18.8475669 C33.3349001,18.7336911 33.1704146,18.6151352 33.0292977,18.4911116 C32.0835224,17.6589879 31.7530756,16.3296147 32.1995261,15.1530973 C32.618094,14.0500581 33.6375565,13.2974542 34.8025062,13.2087879 L35.037301,13.2 L35.1997544,13.2002586 Z M35.0606499,14.6395994 L34.8954204,14.6460236 C34.2927145,14.6985555 33.7669253,15.0906385 33.5497992,15.6628242 C33.3159492,16.279082 33.4890376,16.9754089 33.9840808,17.4109641 C34.3270277,17.7123703 35.0586128,18.0399238 36.0327467,18.3414212 C36.4094942,18.4580258 36.8059994,18.5661865 37.2092548,18.6650981 L37.6905375,18.7773693 L37.6504331,18.5610074 C37.4298552,17.4687462 36.955899,16.2469498 36.4871641,15.5333865 L36.3469589,15.3352023 L36.1471093,15.0929646 C35.8700402,14.7932479 35.4740845,14.6258157 35.0606499,14.6395994 Z M41.9393501,14.6395994 C41.5323754,14.6260311 41.1423377,14.7880598 40.8383912,15.1129358 L40.713601,15.2621015 L40.6174858,15.3789451 C40.1766234,15.9546594 39.688151,17.1227187 39.4219377,18.2314899 L39.3490113,18.5616909 L39.3085,18.7773693 L39.6392334,18.7017548 L40.0917179,18.5891928 L40.535763,18.4689966 L40.9672533,18.3414212 C41.9413872,18.0399238 42.6729723,17.7123703 43.0156257,17.4112222 C43.5109624,16.9754089 43.6840508,16.279082 43.4502008,15.6628242 C43.2163727,15.0466242 42.6245685,14.6393008 41.9642338,14.6400009 L41.9393501,14.6395994 Z" id="GiftFill" fill="#FFFFFF" fill-rule="nonzero" mask="url(#mask-3)"></path>
                </g>
            </g>
        </g>
    </g>
</svg>